<svg xmlns="http://www.w3.org/2000/svg" xmlns:xlink="http://www.w3.org/1999/xlink" width="1080" zoomAndPan="magnify" viewBox="0 0 810 809.999993" height="1080" preserveAspectRatio="xMidYMid meet" version="1.0"><defs><g/><clipPath id="51ac97608e"><path d="M 405 0 C 181.324219 0 0 181.324219 0 405 C 0 628.675781 181.324219 810 405 810 C 628.675781 810 810 628.675781 810 405 C 810 181.324219 628.675781 0 405 0 Z M 405 0 " clip-rule="nonzero"/></clipPath></defs><rect x="-81" width="972" fill="#ffffff" y="-80.999999" height="971.999992" fill-opacity="1"/><rect x="-81" width="972" fill="#ffffff" y="-80.999999" height="971.999992" fill-opacity="1"/><g clip-path="url(#51ac97608e)"><rect x="-81" width="972" fill="#ff914d" y="-80.999999" height="971.999992" fill-opacity="1"/><path stroke-linecap="butt" transform="matrix(0.75, 0, 0, 0.75, 0.0000035, 0.00002)" fill="none" stroke-linejoin="miter" d="M 540.000023 -0.0000266667 C 241.765632 -0.0000266667 -0.00000466667 241.76561 -0.00000466667 540.000001 C -0.00000466667 838.234391 241.765632 1080.000028 540.000023 1080.000028 C 838.234413 1080.000028 1080.00005 838.234391 1080.00005 540.000001 C 1080.00005 241.76561 838.234413 -0.0000266667 540.000023 -0.0000266667 Z M 540.000023 -0.0000266667 " stroke="#ffffff" stroke-width="72" stroke-opacity="1" stroke-miterlimit="4"/></g><g fill="#545454" fill-opacity="1"><g transform="translate(156.424376, 413.828177)"><g><path d="M 95.796875 -157.640625 L 115.1875 -157.640625 C 134.1875 -157.640625 148.207031 -160.804688 157.25 -167.140625 C 166.300781 -173.484375 170.828125 -183.441406 170.828125 -197.015625 C 170.828125 -210.453125 166.207031 -220.015625 156.96875 -225.703125 C 147.726562 -231.390625 133.410156 -234.234375 114.015625 -234.234375 L 95.796875 -234.234375 Z M 95.796875 -108.78125 L 95.796875 0 L 35.671875 0 L 35.671875 -283.5 L 118.28125 -283.5 C 156.800781 -283.5 185.304688 -276.484375 203.796875 -262.453125 C 222.285156 -248.429688 231.53125 -227.132812 231.53125 -198.5625 C 231.53125 -181.882812 226.9375 -167.050781 217.75 -154.0625 C 208.570312 -141.070312 195.582031 -130.890625 178.78125 -123.515625 C 221.445312 -59.785156 249.242188 -18.613281 262.171875 0 L 195.453125 0 L 127.78125 -108.78125 Z M 95.796875 -108.78125 "/></g></g></g><g fill="#545454" fill-opacity="1"><g transform="translate(404.999983, 723.699541)"><g><path d="M 94.828125 0 L 35.6875 0 L 35.6875 -283.5 L 198.1875 -283.5 L 198.1875 -234.25 L 94.828125 -234.25 L 94.828125 -161.140625 L 191 -161.140625 L 191 -112.078125 L 94.828125 -112.078125 Z M 94.828125 0 "/></g></g></g></svg>